# xmcd
#
# Track frame offsets: 
#        150
#        31032
#        48535
#        79954
#        98701
#        121478
#        138742
#        157922
#        173554
#        196284
#        214214
#        232632
#        255915
#        274770
#
# Disc length: 3853 seconds
#
# Revision: 0
# Processed by: cddbd v1.5.2PL0 Copyright (c) Steve Scherf et al.
# Submitted via: ExactAudioCopyFreeDBPlugin 1.0
#
DISCID=b20f0b0e
DTITLE=Krom - Songs From The Noir
DYEAR=2012
DGENRE=Delta Blues
TTITLE0=The Ying
TTITLE1=Mango Madness
TTITLE2=Where Are You?
TTITLE3=Phnom Penh
TTITLE4=Dont Go Away (Khmer)
TTITLE5=Tango Traffic Tango
TTITLE6=Thinkin'It Over
TTITLE7=My Day
TTITLE8=Dont Go Away(English)
TTITLE9=Bangkok Tattoo
TTITLE10=Country
TTITLE11=Prison Of Sobriety
TTITLE12=Where'd Ya Go
TTITLE13=Phnom Penh
EXTD=
EXTT0=
EXTT1=
EXTT2=
EXTT3=
EXTT4=
EXTT5=
EXTT6=
EXTT7=
EXTT8=
EXTT9=
EXTT10=
EXTT11=
EXTT12=
EXTT13=
PLAYORDER=
